<svg
	version="1.1"
	xmlns="http://www.w3.org/2000/svg"
	xmlns:xlink="http://www.w3.org/1999/xlink"
	style="display: none">
	<defs>
		<g fill="currentColor" id="icon-steam">
			<path d="M44.084 0A44.231 44.231 0 000 40.689l23.709 9.8a12.442 12.442 0 017.047-2.177q.352 0 .7.019L42 33.048v-.216a16.683 16.683 0 1116.683 16.684c-.127 0-.252 0-.378-.006L43.267 60.24c.008.2.014.4.014.593a12.522 12.522 0 01-24.8 2.467L1.525 56.29A44.236 44.236 0 1044.086-.003z"/>
			<path d="M27.722 67.123l-5.434-2.245A9.4 9.4 0 1027.43 52.03l5.614 2.321a6.91823077 6.91823077 0 01-5.322 12.772z"/>
			<path d="M69.796 32.835A11.116 11.116 0 1058.68 43.95a11.128 11.128 0 0011.116-11.115zm-19.451-.019a8.351 8.351 0 118.351 8.35 8.35 8.35 0 01-8.351-8.35z"/>
			<path d="M135.564 30.266l-2.964 5.211a14.827 14.827 0 00-8.078-2.555c-3.087 0-5 1.277-5 3.567 0 2.78 3.394 3.427 8.437 5.238 5.421 1.917 8.536 4.171 8.536 9.135 0 6.792-5.342 10.608-13.02 10.608a23.608 23.608 0 01-11.726-3.076l2.162-5.778a20.463 20.463 0 009.2 2.372c4.052 0 5.979-1.495 5.979-3.7 0-2.528-2.938-3.289-7.679-4.858-5.4-1.8-9.146-4.171-9.146-9.667 0-6.2 4.962-9.756 12.1-9.756a19.059 19.059 0 0111.199 3.259z"/>
			<path d="M158.733 33.56V60.9h-6.977V33.56h-10.131v-5.986h27.209v5.986z"/>
			<path d="M183.545 33.542v7.51h13.356v5.985h-13.356v7.823h15.5v6.04h-22.476V27.574h22.476v5.968z"/>
			<path d="M214.619 54.429l-2.206 6.471h-7.315l12.495-33.326h7.024L237.466 60.9h-7.565l-2.254-6.471zm6.445-18.9l-4.549 13.337h9.2z"/>
			<path d="M273.281 40.455l-9.119 19.474h-3.937l-8.973-19.3v20.27h-6.684V27.574h6.668l11.2 24.057 10.8-24.057h6.727V60.9h-6.683z"/>
			<path d="M293.458 31.779a4.617 4.617 0 11-4.61-4.637 4.5 4.5 0 014.61 4.637zm-8.457 0a3.84 3.84 0 103.844-3.886 3.729 3.729 0 00-3.844 3.886zm3.912-2.37c1.194 0 1.6.632 1.6 1.315a1.361 1.361 0 01-.823 1.26l1.071 2.007h-.877l-.9-1.779h-.939v1.779h-.731v-4.582zm-.86 2.132h.815a.757.757 0 00.838-.747c0-.419-.224-.689-.84-.689h-.813z"/>
		</g>
	</defs>
</svg>
